999
trimesh
0
SECTION
2
HEADER
9
$ACADVER
1
AC1014
9
$DWGCODEPAGE
3
ANSI_1252
9
$INSBASE
10
0
20
0
30
0
9
$EXTMIN
10
-13.1175659078
20
-4.59110965838
30
-1.15300707886
9
$EXTMAX
10
4.68238628762
20
10.8594490529
30
12.6018463363
9
$LIMMIN
10
0
20
0
9
$LIMMAX
10
12
20
9
9
$ORTHOMODE
70
0
9
$REGENMODE
70
1
9
$FILLMODE
70
1
9
$QTEXTMODE
70
0
9
$MIRRTEXT
70
1
9
$LTSCALE
40
1
9
$ATTMODE
70
1
9
$TEXTSIZE
40
0.2
9
$TRACEWID
40
0.05
9
$TEXTSTYLE
7
STANDARD
9
$CLAYER
8
0
9
$CELTYPE
6
BYBLOCK
9
$CECOLOR
62
256
9
$CELTSCALE
40
1
9
$DISPSILH
70
0
9
$DIMSCALE
40
1
9
$DIMASZ
40
0.18
9
$DIMEXO
40
0.0625
9
$DIMDLI
40
0.38
9
$DIMRND
40
0
9
$DIMDLE
40
0
9
$DIMEXE
40
0.18
9
$DIMTP
40
0
9
$DIMTM
40
0
9
$DIMTXT
40
0.18
9
$DIMCEN
40
0.09
9
$DIMTSZ
40
0
9
$DIMTOL
70
0
9
$DIMLIM
70
0
9
$DIMTIH
70
1
9
$DIMTOH
70
1
9
$DIMSE1
70
0
9
$DIMSE2
70
0
9
$DIMTAD
70
0
9
$DIMZIN
70
0
9
$DIMASO
70
1
9
$DIMSHO
70
1
9
$DIMALT
70
0
9
$DIMALTD
70
2
9
$DIMALTF
40
25.4
9
$DIMLFAC
40
1
9
$DIMTOFL
70
0
9
$DIMTVP
40
0
9
$DIMTIX
70
0
9
$DIMSOXD
70
0
9
$DIMSAH
70
0
9
$DIMSTYLE
2
STANDARD
9
$DIMCLRD
70
0
9
$DIMCLRE
70
0
9
$DIMCLRT
70
0
9
$DIMTFAC
40
1
9
$DIMGAP
40
0.09
9
$DIMJUST
70
0
9
$DIMSD1
70
0
9
$DIMSD2
70
0
9
$DIMTOLJ
70
1
9
$DIMTZIN
70
0
9
$DIMALTZ
70
0
9
$DIMALTTZ
70
0
9
$DIMUPT
70
0
9
$DIMDEC
70
4
9
$DIMTDEC
70
4
9
$DIMALTU
70
2
9
$DIMALTTD
70
2
9
$DIMTXSTY
7
STANDARD
9
$DIMAUNIT
70
0
9
$DIMADEC
70
0
9
$DIMALTRND
40
0
9
$DIMAZIN
70
0
9
$DIMDSEP
70
44
9
$DIMATFIT
70
3
9
$DIMFRAC
70
0
9
$DIMLDRBLK
1
STANDARD
9
$DIMUNIT
70
2
9
$DIMLWD
70
-2
9
$DIMLWE
70
-2
9
$DIMTMOVE
70
0
9
$LUNITS
70
1
9
$LUPREC
70
4
9
$SKETCHINC
40
0.1
9
$FILLETRAD
40
0.5
9
$AUNITS
70
0
9
$AUPREC
70
0
9
$MENU
1
.
9
$ELEVATION
40
0
9
$PELEVATION
40
0
9
$THICKNESS
40
0
9
$LIMCHECK
70
0
9
$BLIPMODE
70
0
9
$CHAMFERA
40
0
9
$CHAMFERB
40
0
9
$CHAMFERC
40
0
9
$CHAMFERD
40
0
9
$SKPOLY
70
0
9
$USRTIMER
70
1
9
$ANGBASE
50
0
9
$ANGDIR
70
0
9
$PDMODE
70
0
9
$PDSIZE
40
0
9
$PLINEWID
40
0
9
$SPLFRAME
70
0
9
$SPLINETYPE
70
6
9
$SPLINESEGS
70
8
9
$HANDSEED
5
20000
9
$SURFTAB1
70
6
9
$SURFTAB2
70
6
9
$SURFTYPE
70
6
9
$SURFU
70
6
9
$SURFV
70
6
9
$UCSORG
10
0
20
0
30
0
9
$UCSXDIR
10
1
20
0
30
0
9
$UCSYDIR
10
0
20
1
30
0
9
$UCSORTHOVIEW
70
0
9
$UCSORGTOP
10
0
20
0
30
0
9
$UCSORGBOTTOM
10
0
20
0
30
0
9
$UCSORGLEFT
10
0
20
0
30
0
9
$UCSORGRIGHT
10
0
20
0
30
0
9
$UCSORGFRONT
10
0
20
0
30
0
9
$UCSORGBACK
10
0
20
0
30
0
9
$PUCSORG
10
0
20
0
30
0
9
$PUCSXDIR
10
1
20
0
30
0
9
$PUCSYDIR
10
0
20
1
30
0
9
$PUCSORTHOVIEW
70
0
9
$PUCSORGTOP
10
0
20
0
30
0
9
$PUCSORGBOTTOM
10
0
20
0
30
0
9
$PUCSORGLEFT
10
0
20
0
30
0
9
$PUCSORGRIGHT
10
0
20
0
30
0
9
$PUCSORGFRONT
10
0
20
0
30
0
9
$PUCSORGBACK
10
0
20
0
30
0
9
$USERI1
70
0
9
$USERI2
70
0
9
$USERI3
70
0
9
$USERI4
70
0
9
$USERI5
70
0
9
$USERR1
40
0
9
$USERR2
40
0
9
$USERR3
40
0
9
$USERR4
40
0
9
$USERR5
40
0
9
$WORLDVIEW
70
1
9
$SHADEDGE
70
3
9
$SHADEDIF
70
70
9
$TILEMODE
70
1
9
$MAXACTVP
70
64
9
$PINSBASE
10
0
20
0
30
0
9
$PLIMCHECK
70
0
9
$PEXTMIN
10
1e+20
20
1e+20
30
1e+20
9
$PEXTMAX
10
-1e+20
20
-1e+20
30
-1e+20
9
$GRIDMODE
70
0
9
$SNAPSTYLE
70
0
9
$PLIMMIN
10
0
20
0
9
$PLIMMAX
10
0
20
0
9
$UNITMODE
70
0
9
$VISRETAIN
70
1
9
$PLINEGEN
70
0
9
$PSLTSCALE
70
1
9
$TREEDEPTH
70
3020
9
$CMLSTYLE
2
STANDARD
9
$CMLJUST
70
0
9
$CMLSCALE
40
1
9
$PROXYGRAPHICS
70
1
9
$MEASUREMENT
70
0
9
$CELWEIGHT
370
-1
9
$ENDCAPS
280
0
9
$JOINSTYLE
280
0
9
$LWDISPLAY
290
0
9
$XEDIT
290
1
9
$CEPSNTYPE
380
0
9
$PSTYLEMODE
290
1
9
$EXTNAMES
290
1
9
$PSVPSCALE
40
1
9
$OLESTARTUP
290
0
0
ENDSEC
0
SECTION
2
CLASSES
0
ENDSEC
0
SECTION
2
TABLES
0
TABLE
2
VPORT
5
8
100
AcDbSymbolTable
70
1
0
VPORT
5
31
330
2
100
AcDbSymbolTableRecord
100
AcDbViewportTableRecord
2
*ACTIVE
70
0
10
0
20
0
11
1
21
1
12
354.791887455375
22
270.82508654025
13
0
23
0
14
10
24
10
15
10
25
10
16
0
26
0
36
1
17
0
27
0
37
0
40
650.7886407907502
41
1.281197063805759
42
50
43
0
44
0
50
0
51
0
71
0
72
100
73
1
74
3
75
0
76
0
77
0
78
0
0
ENDTAB
0
TABLE
2
LTYPE
5
5
100
AcDbSymbolTable
70
4
0
LTYPE
5
14
100
AcDbSymbolTableRecord
100
AcDbLinetypeTableRecord
2
ByBlock
70
0
72
65
73
0
40
0
0
LTYPE
5
15
100
AcDbSymbolTableRecord
100
AcDbLinetypeTableRecord
2
ByLayer
70
0
72
65
73
0
40
0
0
LTYPE
5
16
100
AcDbSymbolTableRecord
100
AcDbLinetypeTableRecord
2
Continuous
70
0
3
Solid line
72
65
73
0
40
0
0
LTYPE
5
32
330
5
100
AcDbSymbolTableRecord
100
AcDbLinetypeTableRecord
2
DOT
70
0
3
Dot . . . . . . . . . . . . . . . . . . . . . .
72
65
73
2
40
6.35
49
0
74
0
49
-6.35
74
0
0
LTYPE
5
33
330
5
100
AcDbSymbolTableRecord
100
AcDbLinetypeTableRecord
2
DOTTINY
70
0
3
Dot (.15x) .....................................
72
65
73
2
40
0.9525
49
0
74
0
49
-0.9525
74
0
0
LTYPE
5
34
330
5
100
AcDbSymbolTableRecord
100
AcDbLinetypeTableRecord
2
DOT2
70
0
3
Dot (.5x) .....................................
72
65
73
2
40
3.175
49
0
74
0
49
-3.175
74
0
0
LTYPE
5
35
330
5
100
AcDbSymbolTableRecord
100
AcDbLinetypeTableRecord
2
DOTX2
70
0
3
Dot (2x) .  .  .  .  .  .  .  .  .  .  .  .  .
72
65
73
2
40
12.7
49
0
74
0
49
-12.7
74
0
0
LTYPE
5
36
330
5
100
AcDbSymbolTableRecord
100
AcDbLinetypeTableRecord
2
DASHED
70
0
3
Dashed _ _ _ _ _ _ _ _ _ _ _ _ _ _ _ _ _
72
65
73
2
40
19.05
49
12.7
74
0
49
-6.35
74
0
0
LTYPE
5
37
330
5
100
AcDbSymbolTableRecord
100
AcDbLinetypeTableRecord
2
DASHEDTINY
70
0
3
Dashed (.15x) _ _ _ _ _ _ _ _ _ _ _ _ _ _ _ _ _
72
65
73
2
40
2.8575
49
1.905
74
0
49
-0.9525
74
0
0
LTYPE
5
38
330
5
100
AcDbSymbolTableRecord
100
AcDbLinetypeTableRecord
2
DASHED2
70
0
3
Dashed (.5x) _ _ _ _ _ _ _ _ _ _ _ _ _ _ _ _ _
72
65
73
2
40
9.524999999999999
49
6.35
74
0
49
-3.175
74
0
0
LTYPE
5
39
330
5
100
AcDbSymbolTableRecord
100
AcDbLinetypeTableRecord
2
DASHEDX2
70
0
3
Dashed (2x) ____  ____  ____  ____  ____  ___
72
65
73
2
40
38.09999999999999
49
25.4
74
0
49
-12.7
74
0
0
LTYPE
5
3A
330
5
100
AcDbSymbolTableRecord
100
AcDbLinetypeTableRecord
2
DASHDOT
70
0
3
Dash dot __ . __ . __ . __ . __ . __ . __ . __
72
65
73
4
40
25.4
49
12.7
74
0
49
-6.35
74
0
49
0
74
0
49
-6.35
74
0
0
LTYPE
5
3B
330
5
100
AcDbSymbolTableRecord
100
AcDbLinetypeTableRecord
2
DASHDOTTINY
70
0
3
Dash dot (.15x) _._._._._._._._._._._._._._._.
72
65
73
4
40
3.81
49
1.905
74
0
49
-0.9525
74
0
49
0
74
0
49
-0.9525
74
0
0
LTYPE
5
3C
330
5
100
AcDbSymbolTableRecord
100
AcDbLinetypeTableRecord
2
DASHDOT2
70
0
3
Dash dot (.5x) _._._._._._._._._._._._._._._.
72
65
73
4
40
12.7
49
6.35
74
0
49
-3.175
74
0
49
0
74
0
49
-3.175
74
0
0
LTYPE
5
3D
330
5
100
AcDbSymbolTableRecord
100
AcDbLinetypeTableRecord
2
DASHDOTX2
70
0
3
Dash dot (2x) ____  .  ____  .  ____  .  ___
72
65
73
4
40
50.8
49
25.4
74
0
49
-12.7
74
0
49
0
74
0
49
-12.7
74
0
0
LTYPE
5
3E
330
5
100
AcDbSymbolTableRecord
100
AcDbLinetypeTableRecord
2
DIVIDE
70
0
3
Divide ____ . . ____ . . ____ . . ____ . . ____
72
65
73
6
40
31.75
49
12.7
74
0
49
-6.35
74
0
49
0
74
0
49
-6.35
74
0
49
0
74
0
49
-6.35
74
0
0
LTYPE
5
3F
330
5
100
AcDbSymbolTableRecord
100
AcDbLinetypeTableRecord
2
DIVIDETINY
70
0
3
Divide (.15x) __..__..__..__..__..__..__..__.._
72
65
73
6
40
4.7625
49
1.905
74
0
49
-0.9525
74
0
49
0
74
0
49
-0.9525
74
0
49
0
74
0
49
-0.9525
74
0
0
LTYPE
5
40
330
5
100
AcDbSymbolTableRecord
100
AcDbLinetypeTableRecord
2
DIVIDE2
70
0
3
Divide (.5x) __..__..__..__..__..__..__..__.._
72
65
73
6
40
15.875
49
6.35
74
0
49
-3.175
74
0
49
0
74
0
49
-3.175
74
0
49
0
74
0
49
-3.175
74
0
0
LTYPE
5
41
330
5
100
AcDbSymbolTableRecord
100
AcDbLinetypeTableRecord
2
DIVIDEX2
70
0
3
Divide (2x) ________  .  .  ________  .  .  _
72
65
73
6
40
63.5
49
25.4
74
0
49
-12.7
74
0
49
0
74
0
49
-12.7
74
0
49
0
74
0
49
-12.7
74
0
0
LTYPE
5
42
330
5
100
AcDbSymbolTableRecord
100
AcDbLinetypeTableRecord
2
BORDER
70
0
3
Border __ __ . __ __ . __ __ . __ __ . __ __ .
72
65
73
6
40
44.45
49
12.7
74
0
49
-6.35
74
0
49
12.7
74
0
49
-6.35
74
0
49
0
74
0
49
-6.35
74
0
0
LTYPE
5
43
330
5
100
AcDbSymbolTableRecord
100
AcDbLinetypeTableRecord
2
BORDERTINY
70
0
3
Border (.15x) __.__.__.__.__.__.__.__.__.__.__.
72
65
73
6
40
6.6675
49
1.905
74
0
49
-0.9525
74
0
49
1.905
74
0
49
-0.9525
74
0
49
0
74
0
49
-0.9525
74
0
0
LTYPE
5
44
330
5
100
AcDbSymbolTableRecord
100
AcDbLinetypeTableRecord
2
BORDER2
70
0
3
Border (.5x) __.__.__.__.__.__.__.__.__.__.__.
72
65
73
6
40
22.225
49
6.35
74
0
49
-3.175
74
0
49
6.35
74
0
49
-3.175
74
0
49
0
74
0
49
-3.175
74
0
0
LTYPE
5
45
330
5
100
AcDbSymbolTableRecord
100
AcDbLinetypeTableRecord
2
BORDERX2
70
0
3
Border (2x) ____  ____  .  ____  ____  .  ___
72
65
73
6
40
88.89999999999999
49
25.4
74
0
49
-12.7
74
0
49
25.4
74
0
49
-12.7
74
0
49
0
74
0
49
-12.7
74
0
0
LTYPE
5
46
330
5
100
AcDbSymbolTableRecord
100
AcDbLinetypeTableRecord
2
CENTER
70
0
3
Center ____ _ ____ _ ____ _ ____ _ ____ _ ____
72
65
73
4
40
50.8
49
31.75
74
0
49
-6.35
74
0
49
6.35
74
0
49
-6.35
74
0
0
LTYPE
5
47
330
5
100
AcDbSymbolTableRecord
100
AcDbLinetypeTableRecord
2
CENTERTINY
70
0
3
Center (.15x) ___ _ ___ _ ___ _ ___ _ ___ _ ___
72
65
73
4
40
7.619999999999999
49
4.7625
74
0
49
-0.9525
74
0
49
0.9525
74
0
49
-0.9525
74
0
0
LTYPE
5
48
330
5
100
AcDbSymbolTableRecord
100
AcDbLinetypeTableRecord
2
CENTER2
70
0
3
Center (.5x) ___ _ ___ _ ___ _ ___ _ ___ _ ___
72
65
73
4
40
28.575
49
19.05
74
0
49
-3.175
74
0
49
3.175
74
0
49
-3.175
74
0
0
LTYPE
5
49
330
5
100
AcDbSymbolTableRecord
100
AcDbLinetypeTableRecord
2
CENTERX2
70
0
3
Center (2x) ________  __  ________  __  _____
72
65
73
4
40
101.6
49
63.5
74
0
49
-12.7
74
0
49
12.7
74
0
49
-12.7
74
0
0
ENDTAB
0
TABLE
2
LAYER
5
2
100
AcDbSymbolTable
70
1
0
LAYER
5
10
330
2
100
AcDbSymbolTableRecord
100
AcDbLayerTableRecord
2
0
70
0
62
7
6
CONTINUOUS
370
0
390
F
0
LAYER
5
4A
330
2
100
AcDbSymbolTableRecord
100
AcDbLayerTableRecord
2
None
70
0
62
7
6
CONTINUOUS
370
-3
390
F
0
ENDTAB
0
TABLE
2
STYLE
5
3
100
AcDbSymbolTable
70
3
0
STYLE
5
4B
330
2
100
AcDbSymbolTableRecord
100
AcDbTextStyleTableRecord
2
Standard
70
0
40
0
41
1
50
0
71
0
42
1
3
txt
0
ENDTAB
0
TABLE
2
VIEW
5
6
100
AcDbSymbolTable
70
0
0
ENDTAB
0
TABLE
2
UCS
5
7
100
AcDbSymbolTable
70
0
0
ENDTAB
0
TABLE
2
APPID
5
9
100
AcDbSymbolTable
70
1
0
APPID
5
12
100
AcDbSymbolTableRecord
100
AcDbRegAppTableRecord
2
ACAD
70
0
0
APPID
5
4C
100
AcDbSymbolTableRecord
100
AcDbRegAppTableRecord
2
LibreCad
70
0
0
ENDTAB
0
TABLE
2
DIMSTYLE
5
A
100
AcDbSymbolTable
70
1
0
DIMSTYLE
105
4D
330
A
100
AcDbSymbolTableRecord
100
AcDbDimStyleTableRecord
2
Standard
70
0
40
1
41
0.18
42
0.0625
43
0.38
44
0.18
45
0
46
0
47
0
48
0
49
1
140
0.18
141
0.09
142
0
143
25.4
144
1
145
0
146
1
147
0.09
71
0
72
0
73
1
74
1
75
0
76
0
77
0
78
0
170
0
171
2
172
0
173
0
174
0
175
0
176
0
177
0
178
0
270
2
271
4
272
4
273
2
274
2
275
0
280
0
281
0
282
0
283
1
284
0
285
0
286
0
287
3
288
0
340
STANDARD
0
ENDTAB
0
TABLE
2
BLOCK_RECORD
5
1
100
AcDbSymbolTable
70
2
0
BLOCK_RECORD
5
1F
100
AcDbSymbolTableRecord
100
AcDbBlockTableRecord
2
*Model_Space
0
BLOCK_RECORD
5
1E
100
AcDbSymbolTableRecord
100
AcDbBlockTableRecord
2
*Paper_Space
0
ENDTAB
0
ENDSEC
0
SECTION
2
BLOCKS
0
BLOCK
5
20
100
AcDbEntity
8
0
100
AcDbBlockBegin
2
*Model_Space
70
0
10
0
20
0
30
0
3
*Model_Space
0
ENDBLK
5
21
100
AcDbEntity
8
0
100
AcDbBlockEnd
0
BLOCK
5
1C
100
AcDbEntity
8
0
100
AcDbBlockBegin
2
*Paper_Space
70
0
10
0
20
0
30
0
3
*Paper_Space
0
ENDBLK
5
1D
100
AcDbEntity
8
0
100
AcDbBlockEnd
0
ENDSEC
0
SECTION
2
ENTITIES
0
LWPOLYLINE
5
2536112179584
330
1F
100
AcDbEntity
8
None
62
255
100
AcDbPolyline
90
624
70
0
43
0.0
10
0
20
0
10
0
20
1
10
-0.422618261741
20
1.90630778704
10
0
20
2
10
0.422618261741
20
2.90630778704
10
0
20
2.90630778704
10
-0.383022221559
20
3.72770159188
10
-1.07729426557
20
4.31026500795
10
-0.766044443119
20
4.54909539672
10
-0.766044443119
20
5.45540318376
10
-1.14906666468
20
5.11492480312
10
0
20
3.81261557407
10
-0.383022221559
20
4.63400937892
10
0
20
4.71892336111
10
0.383022221559
20
5.54031716595
10
0
20
5.3617109708
10
0.271653782274
20
5.94427438687
10
0.271653782274
20
6.58706199655
10
0.543307564548
20
6.52683780294
10
1.03571144105
20
6.9400137141
10
0.814961346823
20
6.7310751924
10
0
20
5.6205300159
10
-0.109381654947
20
5.85509973191
10
0
20
5.879349061
10
0.109381654947
20
6.11391877701
10
0
20
5.70570088333
10
0.073386891
20
5.54832218771
10
0.20640911256
20
5.43670329066
10
0.146773782
20
5.39094349209
10
0.146773782
20
5.21729531442
10
0.220160673
20
4.832112214
10
0.52284408713
20
4.35665371534
10
0.998105866596
20
4.05366151393
10
0.825527501261
20
3.88119521668
10
0.898914392261
20
3.3223639386
10
1.12821091539
20
3.10118903359
10
0.293547564
20
4.27328093592
10
0.59623097813
20
3.79782243726
10
0.366934455
20
3.71444965783
10
0.197273262429
20
3.17696187856
10
0.440321346
20
2.85888207552
10
0.145253972342
20
2.05245987303
10
0.218640863342
20
1.19689229072
10
-0.149813401317
20
1.24603767053
10
-0.758044009211
20
0.639871809325
10
-0.444880774975
20
0.298594664673
10
0.513708237
20
1.86689822924
10
0.999449836572
20
0.998870185042
10
0.587095128
20
0.87491438295
10
0.234375749988
20
-0.0551429418616
10
0.660482019
20
-0.067603403744
10
0
20
5.53205270567
10
0.073386891
20
5.37467401004
10
0
20
5.358404528
10
-0.073386891
20
5.20102583238
10
0
20
4.78482809165
10
0.242403876506
20
4.26499130092
10
0.681788918277
20
3.89630347443
10
0.484807753012
20
3.7451545102
10
0.484807753012
20
3.17157807385
10
0.727211629518
20
2.92783376572
10
0
20
4.2112516553
10
0.242403876506
20
3.69141486457
10
0
20
3.63767521895
10
-0.242403876506
20
3.11783842822
10
0
20
2.77164981516
10
-0.365998150771
20
1.98676424794
10
-0.365998150771
20
1.12073884416
10
-0.731996301541
20
1.20187868072
10
-1.39541024971
20
0.645208281494
10
-1.09799445231
20
0.279221648345
10
0
20
1.77545511707
10
0.421010071663
20
0.872596104786
10
0
20
0.77926041898
10
-0.421010071663
20
-0.123598593306
10
0
20
-0.160432201806
10
-0.397131261967
20
-1.01208294145
10
-0.397131261967
20
-1.95177556223
10
-0.794262523934
20
-1.86373368108
10
-1.51410883433
20
-2.46775645464
10
-1.1913937859
20
-2.4910474198
10
-1.28620269927
20
-3.22742166973
10
-1.06092355025
20
-3.93487136479
10
-1.38101161265
20
-3.96379591966
10
-1.77814287462
20
-4.59110965838
10
-1.47582052602
20
-4.34806622322
10
-1.58852504787
20
-3.11836115852
10
-1.68333396124
20
-3.85473540845
10
-1.98565630984
20
-3.74567489724
10
-2.61069370686
20
-4.14637929994
10
-2.3827875718
20
-4.03110281023
10
-2.86333777544
20
-4.1219534268
10
-3.26046903741
20
-4.40738133979
10
-3.34388797908
20
-4.21280404336
10
-3.81780950035
20
-4.09205337287
10
-3.82443818271
20
-3.92651446608
10
-2.77991883377
20
-3.92116015187
10
-3.18630576413
20
-3.98935318809
10
-3.17705009574
20
-3.81121749352
10
-3.49050947577
20
-3.54374068251
10
-3.5741813577
20
-3.32650580574
10
0
20
-0.867538982993
10
0.29883623873
20
-1.50839536505
10
0
20
-1.57464576418
10
-0.29883623873
20
-2.21550214624
10
0
20
-1.9166659075
10
0.144543958453
20
-2.22664142672
10
0.406546588682
20
-2.44648773712
10
0.289087916905
20
-2.53661694594
10
0.289087916905
20
-2.87863708927
10
0.433631875358
20
-2.42041891084
10
0
20
-2.25868605083
10
0.144543958453
20
-2.56866157005
10
0
20
-2.60070619416
10
-0.144543958453
20
-2.91068171338
10
0
20
-2.51355045141
10
0.0368336085007
20
-2.43456052307
10
0.0368336085007
20
-2.34740478032
10
0.0736672170015
20
-2.35557059473
10
0.140432389419
20
-2.29954796318
10
0.110500825502
20
-1.86297133592
10
0
20
-2.01355045141
10
-0.21130913087
20
-1.56039655789
10
0
20
-1.51355045141
10
0.21130913087
20
-1.06039655789
10
0
20
-0.69439840712
10
-0.346188613059
20
0.0480054693864
10
-0.973695484656
20
0.574546253905
10
-0.692377226118
20
0.790409345893
10
-0.692377226118
20
1.60956139018
10
-1.03856583918
20
1.7056596368
10
-1.73912076198
20
2.38885247266
10
-2.66276891248
20
2.71196815611
10
-2.43967568478
20
3.07204530851
10
-2.78586429784
20
3.98729559942
10
-3.14023060758
20
3.77832288492
10
-1.38475445224
20
2.62090992771
10
-2.08530937504
20
3.30410276357
10
-1.73094306529
20
3.53616021862
10
-1.65789501409
20
4.51196431425
10
-2.07713167835
20
4.45275327359
10
-2.00351615054
20
5.42977432674
10
-2.34970476359
20
6.34636738172
10
-1.92990062272
20
6.40679537989
10
-1.45027535744
20
7.26116590206
10
-1.8562850949
20
7.20774230082
10
-2.42332029141
20
5.19893382921
10
-3.05242325657
20
5.72889744742
10
-2.76950890447
20
5.94511438483
10
-2.76791281091
20
6.76768926281
10
-3.11569751753
20
6.38105982605
10
-3.61368945791
20
6.62985494426
10
-4.17016879174
20
6.64487940907
10
-4.11168139829
20
6.87865006247
10
-4.45787001135
20
7.31459550369
10
-4.60967333867
20
6.75305520796
10
-5.00792863301
20
6.4287671251
10
-5.23182044163
20
5.96655235014
10
-5.40618392736
20
6.10447904224
10
-5.90417586774
20
5.97888418773
10
-5.80443922171
20
5.44795151464
10
-5.10766527904
20
6.62746035345
10
-5.50592057339
20
6.30317227059
10
-5.60565721942
20
6.50186549894
10
-6.11006987197
20
6.59849839249
10
-6.1036491598
20
6.02541519141
10
-6.75633973402
20
5.80406505577
10
-7.2543316744
20
5.32761474825
10
-7.40903030824
20
5.58271492013
10
-8.09411546774
20
5.65794252447
10
-8.06172088246
20
5.07588779921
10
-6.60164110018
20
5.28738879824
10
-6.74107164222
20
4.40804924286
10
-7.09963304056
20
4.54936240506
10
-7.86287044541
20
4.09094382609
10
-7.59762498094
20
3.68805457824
10
-3.46188613059
20
6.81700526726
10
-3.95987807097
20
7.06580038548
10
-3.80807474365
20
7.25295070848
10
-3.93758967486
20
7.79435708646
10
-4.15426335671
20
7.29697164905
10
-4.48662084589
20
7.1905625404
10
-4.74286859388
20
6.95366279227
10
-4.81897833507
20
7.08415343175
10
-5.16516694813
20
7.12817437233
10
-5.15133582426
20
6.59166510799
10
-4.50045196976
20
7.34099258963
10
-4.83280945895
20
7.23458348098
10
-4.84664058282
20
7.3850135302
10
-5.14178996524
20
7.57121568132
10
-5.19282919588
20
7.02886113145
10
-5.65709913935
20
6.85238306898
10
-6.00328775241
20
6.49623067024
10
-6.12136908282
20
6.67590500651
10
-6.61672339988
20
6.71217052074
10
-6.5856390263
20
6.14915693132
10
-5.53901780894
20
6.33927280617
10
-5.56133862539
20
5.56798790723
10
-5.885206422
20
5.64968448088
10
-6.49039247715
20
5.17101084171
10
-6.23139503506
20
4.75587834152
10
-6.92288726781
20
4.0921205072
10
-7.26907588087
20
3.19831436783
10
-7.61437950056
20
3.42836267287
10
-8.52160047793
20
3.11903102433
10
-8.30587173331
20
2.70631864
10
-8.62742753445
20
1.75968726501
10
-8.51879235479
20
0.765852524672
10
-8.94898333559
20
0.813055890021
10
-9.64047556834
20
0.0910118571459
10
-9.27053913674
20
-0.0355197918413
10
-8.99736396606
20
1.98427460713
10
-9.3189197672
20
1.03764323214
10
-9.68885619881
20
1.26223057425
10
-10.6207099881
20
0.900073690085
10
-10.3803484316
20
0.617200149417
10
-11.2796548637
20
0.324841297928
10
-11.9711470964
20
-0.320189126906
10
-12.1789612958
20
0.0324824464378
10
-13.1175659078
20
0.147578663842
10
-13.0782677279
20
-0.0950367213038
10
-11.0718406643
20
0.170051988488
10
-11.509572481
20
-0.527439117133
10
-11.7633328971
20
-0.277096172441
10
-12.5790106708
20
-0.390112787238
10
-12.4548251298
20
-0.442573468026
10
-6.57758364812
20
3.82533973839
10
-6.49807447698
20
2.83567972635
10
-6.92377226118
20
2.89480113526
10
-7.63078830391
20
2.19775238299
10
-7.26996087423
20
2.10189851032
10
-7.24861918095
20
1.23697905708
10
-6.86374628226
20
0.462115210775
10
-7.22727748766
20
0.372059603848
10
-7.57346610072
20
-0.420843021096
10
-7.20593579438
20
-0.199898851996
10
-7.61614948729
20
1.30899588537
10
-7.59480779401
20
0.444076432138
10
-7.96233810035
20
0.516093260428
10
-8.61118666523
20
-0.0562149330351
10
-8.30852671341
20
0.0094042168604
10
-8.83641619204
20
-0.303506379046
10
-9.1826048051
20
-0.810195422613
10
-9.36430567068
20
-0.616416974952
10
-9.97497774798
20
-0.676914550816
10
-9.89219514931
20
-0.566323885516
10
-8.65471532647
20
-0.116125609779
10
-8.91541756514
20
-0.376199899052
10
-9.00090393953
20
-0.241655436418
10
-9.36770857246
20
-0.209118465921
10
-9.34709255259
20
0.0374962883731
10
0
20
0.124753637169
10
-0.346188613059
20
0.867157513675
10
0
20
0.943905681458
10
0.346188613059
20
1.68630955796
10
0
20
1.92871343447
10
-0.416197740727
20
2.82125236976
10
-1.17060424746
20
3.45427459132
10
-0.832395481454
20
3.71379130505
10
-0.832395481454
20
4.69859905806
10
-1.24859322218
20
4.59609318333
10
0
20
2.91352118748
10
-0.416197740727
20
3.80606012277
10
0
20
3.89832894049
10
0.416197740727
20
4.79086787578
10
0
20
4.86425476678
10
0.408217893677
20
5.73968086485
10
0.408217893677
20
6.70560669114
10
0.816435787353
20
6.61510696292
10
1.55637789905
20
7.23599211593
10
1.22465368103
20
7.29913079762
10
0
20
5.6302992099
10
-0.323744370967
20
6.32457125392
10
0
20
6.39634365302
10
0.323744370967
20
7.09061569704
10
0
20
6.81896191476
10
-0.178606195157
20
7.20198413632
10
-0.502350566124
20
7.4736379186
10
-0.357212390313
20
7.58500635788
10
-0.357212390313
20
8.00762461962
10
-0.53581858547
20
7.54912015833
10
-0.682524607679
20
7.4411139765
10
-0.769840033187
20
7.28122648876
10
-0.829230629887
20
7.33310779466
10
-1.00783682504
20
7.29722159511
10
-0.975936652095
20
6.81967478736
10
-0.714424780627
20
7.51323395878
10
-0.861130802835
20
7.40522777694
10
-0.893030975784
20
7.47734775923
10
-1.07006932454
20
7.52030605686
10
-1.07163717094
20
7.02927765346
10
-1.42287196566
20
6.69867046721
10
-1.60147816082
20
6.25060036144
10
-1.77410676038
20
6.36806328095
10
-2.23215422428
20
6.216869652
10
-2.1253415551
20
5.69822818716
10
-1.2502433661
20
6.25298500104
10
-1.08404010021
20
5.47394268539
10
-1.42884956125
20
5.47669234861
10
-1.91879719811
20
4.84861451242
10
-1.60745575641
20
4.51764230254
10
0
20
7.2415801765
10
-0.178606195157
20
7.62460239806
10
0
20
7.66419843824
10
0.178606195157
20
8.0472206598
10
0
20
7.66419843824
10
7.94457100031e-17
20
7.66419843824
10
2.23450241248e-16
20
7.66419843824
10
1.58891420006e-16
20
7.66419843824
10
2.38337130009e-16
20
7.2415801765
10
7.94457100031e-17
20
7.66419843824
10
2.23450241248e-16
20
7.66419843824
10
1.58891420006e-16
20
7.66419843824
10
2.38337130009e-16
20
7.2415801765
10
-0.178606195157
20
6.85855795494
10
-0.178606195157
20
6.4359396932
10
-0.357212390313
20
6.47553573338
10
-0.680956761281
20
6.20388195111
10
-0.53581858547
20
5.74537748982
10
0
20
6.47553573338
10
0.323744370967
20
5.78126368937
10
0
20
5.70949129027
10
-0.323744370967
20
5.01521924625
10
0
20
4.74356546398
10
-0.408217893677
20
3.86813936591
10
-0.408217893677
20
2.90221353962
10
-0.816435787353
20
2.99271326785
10
-1.55637789905
20
2.37182811483
10
-1.22465368103
20
2.08992612325
10
-1.21309040311
20
1.09920276742
10
-0.783912731774
20
0.206189327658
10
-1.20152712518
20
0.1084794116
10
-1.60974501886
20
-0.794307732999
10
-1.18996384725
20
-0.732197801703
10
-1.63287157471
20
1.18713897865
10
-1.62130829678
20
0.196415622825
10
-2.04108946838
20
0.284351834049
10
-2.792594858
20
-0.3613308485
10
-2.44930736206
20
-0.476628106258
10
-3.1408824375
20
-0.993789815299
10
-3.54910033118
20
-1.75476975561
10
-3.83245751294
20
-1.51095152434
10
-4.67779937164
20
-1.68738695216
10
-4.52403258838
20
-1.76655410948
10
-2.85752525574
20
-0.953205053017
10
-3.02608619076
20
-1.55765078762
10
-3.26574314941
20
-1.42978199978
10
-3.83712432609
20
-1.68918706111
10
-3.67396104309
20
-1.53265285541
10
0
20
3.75875771096
10
0.416197740727
20
2.86621877568
10
0
20
2.77394995795
10
-0.416197740727
20
1.88141102266
10
0
20
1.95479791366
10
0.346188613059
20
1.21239403716
10
0.973695484656
20
0.685853252638
10
0.692377226118
20
0.469990160651
10
0.692377226118
20
-0.349161883638
10
1.03856583918
20
0.0395476227531
10
0
20
1.13564586937
10
0.346188613059
20
0.393241992868
10
0
20
0.316493825085
10
-0.346188613059
20
-0.425910051421
10
0
20
-0.183506174915
10
-0.21130913087
20
-0.636660068433
10
-0.21130913087
20
-1.13666006843
10
-0.422618261741
20
-1.08981396195
10
-0.8056404833
20
-1.41120776679
10
-0.633927392611
20
-1.1345127136
10
0
20
-0.270661917663
10
0.0368336085007
20
-0.349651846
10
0
20
-0.35781766041
10
-0.0368336085007
20
-0.436807588748
10
0
20
-0.0157975170847
10
0.144543958453
20
0.294178002135
10
0.144543958453
20
0.63619814546
10
0.289087916905
20
0.604153521354
10
0.551090547135
20
0.823999831747
10
0.433631875358
20
1.28221801018
10
0.278070754857
20
1.95784005298
10
-0.148445713337
20
2.50441860113
10
0.122509634355
20
2.63346209579
10
0.267053592808
20
3.31152658461
10
-0.0330514861459
20
3.55034322139
10
0.57817583381
20
1.96028249901
10
0.422614713309
20
2.63590454181
10
0.722719792263
20
2.63834698783
10
1.14028354299
20
3.1917951977
10
0.867263750716
20
3.55744172129
10
1.38669128446
20
4.32933751877
10
1.53123524291
20
5.24843225223
10
1.9061188182
20
5.10123331626
10
2.70309729701
20
5.58128892689
10
2.42554635194
20
5.95572671343
10
1.01180770917
20
4.54534266037
10
0.725304046637
20
5.50177189074
10
1.15635166762
20
5.53324359945
10
1.70485796038
20
6.36749899689
10
1.30089562607
20
6.40483349381
10
1.06354713508
20
7.25584911864
10
0.488781605373
20
7.92682339963
10
0.826198644089
20
8.10686474347
10
0.970742602541
20
8.97845463784
10
0.588850153096
20
8.68017460043
10
0.131448152281
20
9.09946198149
10
-0.460297347016
20
9.28615896145
10
-0.325953848534
20
9.51874936255
10
-0.563302339526
20
10.0920592195
10
-0.783355849348
20
9.56733234392
10
0.351501662104
20
9.25348445739
10
-0.105900338711
20
9.67277183845
10
0.114153171111
20
9.82679431435
10
0.141333600671
20
10.4466973088
10
-0.123195319881
20
10.014969065
10
-0.25878001948
20
10.2858211136
10
-0.496128510472
20
10.4739958642
10
-0.394364719079
20
10.5566731621
10
-0.402779166186
20
10.8594490529
10
-0.529949418678
20
10.3993828677
10
-0.360543810873
20
9.78274769176
10
-0.477513603395
20
9.47197584616
10
-0.597892301866
20
9.5505263185
10
-0.9111440806
20
9.44037008628
10
-0.835240792858
20
8.94142349003
10
1.44543958453
20
7.27642338818
10
1.20809109353
20
8.12743901301
10
1.58998354298
20
8.14801328254
10
2.0893346642
20
8.87685507444
10
1.73452750143
20
8.73996976019
10
1.61535719894
20
9.33755144194
10
1.25480329421
20
9.8287808274
10
1.49618689644
20
9.93513312369
10
1.64073085489
20
10.5270896013
10
1.37701659394
20
10.1416309262
10
1.87907145988
20
9.33192623784
10
1.75990115739
20
9.92950791959
10
2.02361541834
20
9.92388271549
10
2.40478835106
20
10.3992905643
10
2.16815937679
20
10.1252823517
10
2.38427585607
20
10.2467254938
10
2.52881981452
20
10.44812513
10
2.60039233535
20
10.3681686359
10
2.84758447305
20
10.3868987305
10
2.81650881463
20
10.0688070823
10
2.31270333524
20
9.89838599122
10
2.53959519581
20
9.75383496935
10
2.45724729369
20
9.67148963076
10
2.49235806335
20
9.40476477595
10
2.60179125215
20
9.05881411788
10
2.473864707
20
8.44245461316
10
2.61840866545
20
7.82977910029
10
2.34593816185
20
7.82609510845
10
1.96951255532
20
7.32154778385
10
2.2180116167
20
6.93910746193
10
2.47692797002
20
6.08115955674
10
3.07417032958
20
5.41301746858
10
2.73584432334
20
5.22321165156
10
2.60791777819
20
4.33622400504
10
2.99476067666
20
4.25812247788
10
2.09008507155
20
6.05211981541
10
2.34900142487
20
5.19417191022
10
1.9621585264
20
5.16513216889
10
1.47136052501
20
4.41531245199
10
1.83423198125
20
4.17372405152
10
1.29930398197
20
3.32926724875
10
1.17137743683
20
2.33785913137
10
0.764375982696
20
2.48481044598
10
-0.0773162946555
20
1.94554301102
10
0.229447983417
20
1.70793941942
10
1.7063054361
20
3.26366990421
10
1.97497011389
20
2.38481664975
10
1.57837889096
20
2.35361575691
10
1.0778325651
20
1.58289069073
10
1.45045234581
20
1.69544555364
10
2.7463352106
20
8.17516530185
10
3.25078265233
20
7.43539441534
10
2.89087916905
20
7.29151648582
10
2.64843435755
20
6.42957176638
10
3.0354231275
20
6.30247639275
10
3.58441084754
20
5.46718857117
10
4.43497058041
20
4.94217295002
10
4.13339856758
20
4.6319007496
10
4.27794252604
20
3.64286065653
10
4.68238628762
20
3.86214697048
10
3.17996708596
20
5.31343629968
10
3.728954806
20
4.4781484781
10
3.32451104441
20
4.32439620661
10
3.0375259546
20
3.3669345521
10
3.46905500286
20
3.41529554655
10
3.21585377728
20
2.53028362268
10
3.36039773573
20
1.62118296263
10
2.9626525517
20
1.64527169881
10
2.35915210838
20
0.950185962414
10
2.70945132611
20
1.00829358625
10
3.61359896131
20
2.75648562482
10
4.02302538037
20
2.22048797903
10
3.75814291977
20
2.09767570308
10
3.61071913094
20
1.43950422436
10
3.90268687822
20
1.81260723863
10
0
20
0.691309264102
10
-0.29883623873
20
1.33216564616
10
0
20
1.39841604529
10
0.29883623873
20
2.03927242734
10
0
20
2.33810866607
10
-0.397131261967
20
3.18975940571
10
-1.11697757236
20
3.79378217927
10
-0.794262523934
20
4.04141014535
10
-0.794262523934
20
4.98110276614
10
-1.1913937859
20
4.95781180098
10
0
20
3.27780128686
10
-0.397131261967
20
4.1294520265
10
0
20
4.21749390765
10
0.397131261967
20
5.06914464729
10
0
20
5.21368860574
10
0.421010071663
20
6.11654761802
10
0.421010071663
20
7.11274231611
10
0.842020143326
20
7.01940663031
10
1.60514955606
20
7.65974823908
10
1.26303021499
20
7.80084117524
10
0
20
6.07971400952
10
-0.365998150771
20
6.86459957674
10
0
20
6.94573941331
10
0.365998150771
20
7.73062498053
10
0
20
7.51931584966
10
-0.242403876506
20
8.03915264038
10
-0.681788918277
20
8.40784046688
10
-0.484807753012
20
8.55898943111
10
-0.484807753012
20
9.13256586746
10
-0.727211629518
20
8.68393294947
10
-0.99970756295
20
8.69472592818
10
-1.25123405926
20
8.58934593111
10
-1.27220349638
20
8.70551890688
10
-1.51460737289
20
8.83046242525
10
-1.54469942981
20
8.30870116044
10
-0.969615506024
20
8.80887646784
10
-1.24211143946
20
8.81966944654
10
-1.21201938253
20
8.9338199862
10
-1.37890849087
20
9.14950157476
10
-1.45442325904
20
8.64045776274
10
-1.79809601286
20
8.47702560013
10
-2.04049988937
20
8.18366337667
10
-2.14176876668
20
8.31359343751
10
-2.52231147615
20
8.31071597771
10
-2.48544152051
20
7.77465360997
10
-1.69682713554
20
7.98376130929
10
-1.63898774278
20
7.28614789488
10
-1.93923101205
20
7.32706485584
10
-2.43645544658
20
6.83434005128
10
-2.18163488855
20
6.43008886033
10
0
20
8.09289228601
10
-0.242403876506
20
8.61272907673
10
0
20
8.66646872236
10
0.242403876506
20
9.18630551309
10
0
20
8.84011690003
10
-0.073386891
20
8.99749559565
10
-0.20640911256
20
9.1091144927
10
-0.146773782
20
9.15487429128
10
-0.146773782
20
9.32852246894
10
-0.220160673
20
8.88131008791
10
0
20
9.01376507769
10
-0.073386891
20
9.17114377332
10
0
20
9.18741325536
10
0.073386891
20
9.34479195098
10
0
20
8.92859421026
10
-0.109381654947
20
8.69402449425
10
-0.109381654947
20
8.43520544915
10
-0.218763309893
20
8.45945477824
10
-0.417030201167
20
8.2930891029
10
-0.32814496484
20
7.83864452434
10
0
20
8.28580660057
10
0.271653782274
20
7.7032431845
10
0
20
7.64301899089
10
-0.271653782274
20
7.06045557482
10
0
20
6.73671120385
10
-0.383022221559
20
5.91531739901
10
-0.383022221559
20
5.00900961197
10
-0.766044443119
20
5.09392359416
10
-1.46031648713
20
4.51136017809
10
-1.14906666468
20
4.17088179745
10
-1.10610836705
20
3.17244964385
10
-0.645219266163
20
2.28571776929
10
-1.06315006941
20
2.17401749025
10
-1.44617229097
20
1.25097569354
10
-1.02019177178
20
1.25396449134
10
-1.53208888624
20
3.24784000074
10
-1.48913058861
20
2.24940784714
10
-1.9151111078
20
2.32479820403
10
-2.65234144944
20
1.6501104214
10
-2.29813332936
20
1.47307207264
10
-3.00522436849
20
0.863018232818
10
-3.38824659005
20
0.011292101424
10
-3.71231540763
20
0.252964392997
10
-4.6109774159
20
-0.00110256669278
10
-4.41940644677
20
-0.14881638114
10
-2.68115555092
20
0.852261818739
10
-2.76592582255
20
0.127744465875
10
-3.06417777248
20
0.23145156484
10
-3.67367954486
20
-0.169321417058
10
-3.44719999404
20
-0.0421126385289
10
0
20
5.73671120385
10
0.422618261741
20
4.83040341681
10
0
20
4.73671120385
10
-0.422618261741
20
3.83040341681
10
0
20
3.83040341681
10
0.383022221559
20
3.00900961197
10
1.07729426557
20
2.4264461959
10
0.766044443119
20
2.18761580713
10
0.766044443119
20
1.28130802009
10
1.14906666468
20
1.62178640073
10
0
20
2.92409562978
10
0.383022221559
20
2.10270182493
10
0
20
2.01778784274
10
-0.383022221559
20
1.1963940379
10
0
20
1.37500023305
10
-0.271653782274
20
0.792436816982
10
-0.271653782274
20
0.149649207296
10
-0.543307564548
20
0.209873400913
10
-1.03571144105
20
-0.203302510254
10
-0.814961346823
20
0.00563601145328
10
0
20
1.11618118795
10
0.109381654947
20
0.88161147194
10
0
20
0.857362142847
10
-0.109381654947
20
0.622792426837
10
0
20
1.03101032051
0
ENDSEC
0
SECTION
2
OBJECTS
0
DICTIONARY
5
C
100
AcDbDictionary
281
1
3
ACAD_GROUP
350
D
0
DICTIONARY
5
D
330
C
100
AcDbDictionary
281
1
0
ENDSEC
0
EOF